<svg xmlns="http://www.w3.org/2000/svg" width="24" height="24" viewBox="0 0 24 24">
  <g id="youtube" transform="translate(-40 -40)">
    <rect id="Rectangle_1228" data-name="Rectangle 1228" width="24" height="24" transform="translate(40 40)" fill="none"/>
    <path id="Path_953" data-name="Path 953" d="M234.372,258.635a3.3,3.3,0,0,1-.794-1.29,6.312,6.312,0,0,1-.3-1.243c0-.005,0-.01,0-.015s-.171-1.712-.171-3.338v-1.5c0-1.714.171-3.343.171-3.343,0-.02.005-.041.009-.062a6.1,6.1,0,0,1,1.083-2.478,4.022,4.022,0,0,1,2.458-1.079.859.859,0,0,1,.124-.016C239.8,244.1,244,244.1,244,244.1s4.169,0,7.021.166a3.562,3.562,0,0,1,3.4,2.384,6.312,6.312,0,0,1,.3,1.243.034.034,0,0,0,0,.01s.171,1.63.171,3.259v1.5c0,1.714-.171,3.342-.171,3.342a.618.618,0,0,1-.009.062,6.1,6.1,0,0,1-1.083,2.479,4.028,4.028,0,0,1-2.458,1.079l-.1.014c-2.863.253-7.074.253-7.074.253s-5.319,0-6.923-.171a.732.732,0,0,1-.082-.013A3.984,3.984,0,0,1,234.372,258.635Zm18.561-10.53a4.384,4.384,0,0,0-.205-.841,1.4,1.4,0,0,0-.327-.583.768.768,0,0,1-.076-.075,1.611,1.611,0,0,0-1.33-.535h-.053c-2.81-.166-6.942-.165-6.942-.165s-4.1,0-6.907.163a2.178,2.178,0,0,0-1.451.572,1.824,1.824,0,0,0-.337.632,5.77,5.77,0,0,0-.24.861c-.024.24-.158,1.645-.158,3.118v1.5c0,1.539.162,3.159.16,3.143a4.378,4.378,0,0,0,.205.844,1.4,1.4,0,0,0,.327.583.768.768,0,0,1,.076.075,1.481,1.481,0,0,0,.916.457c.278.046.522.058.695.085,1.585.162,6.714.159,6.714.159s4.09,0,6.889-.244a2.2,2.2,0,0,0,1.469-.575,1.815,1.815,0,0,0,.337-.632,5.736,5.736,0,0,0,.24-.86c.024-.24.158-1.646.158-3.118v-1.5C253.093,249.7,252.945,248.227,252.933,248.1Zm-5.007,4.493a.9.9,0,0,0,0-1.612l-5.607-2.79a.9.9,0,0,0-1.3.806v5.58a.9.9,0,0,0,1.3.8Zm-5.108.531,2.687-1.337-2.687-1.337Z" transform="translate(-192 -200)" fill="#9676ff" fill-rule="evenodd"/>
  </g>
</svg>
